<?xml version="1.0" encoding="utf-8"?>
<!-- Generator: Adobe Illustrator 25.2.0, SVG Export Plug-In . SVG Version: 6.00 Build 0)  -->
<svg version="1.1" id="Capa_1" xmlns="http://www.w3.org/2000/svg" xmlns:xlink="http://www.w3.org/1999/xlink" x="0px" y="0px"
	 viewBox="0 0 100 96" style="enable-background:new 0 0 100 96;" xml:space="preserve">
<g>
	<g>
		<path d="M69.3,58.6c-1.7-0.7-3.9-4-5.5-8C62.7,47.9,59.6,40,51,39.4c-0.2,0-0.3-0.1-0.5-0.1c-0.1,0-0.2,0-0.3,0
			c-0.1,0-0.2,0-0.3,0c-0.2,0-0.4,0-0.5,0.1c-8.6,0.6-11.7,8.6-12.8,11.3c-1.6,4-3.8,7.3-5.5,8C24,61.7,19.7,69.2,20.7,76.9
			c0.9,7,6,12,13.3,13.1c0.8,0.1,1.7,0.2,2.6,0.2c2.3,0,4.7-0.5,6.9-1.4c1-0.4,1.8-0.9,2.7-1.3c1.5-0.8,2.7-1.5,4.1-1.6
			c1.4,0.2,2.7,0.8,4.1,1.6c0.8,0.5,1.7,0.9,2.7,1.3c2.2,0.9,4.5,1.4,6.9,1.4c0.9,0,1.7-0.1,2.6-0.2c7.3-1.1,12.3-6.1,13.3-13.1
			C80.7,69.2,76.4,61.7,69.3,58.6z"/>
		<path d="M28,46c-1-6.9-6.2-12.1-12-12.1c-0.5,0-0.9,0-1.4,0.1c-6.3,0.9-10.5,7.8-9.4,15.3c1,6.9,6.2,12.1,12,12.1
			c0.5,0,0.9,0,1.4-0.1C24.9,60.4,29.1,53.5,28,46z"/>
		<path d="M35.4,37.5c6.4,0,11.5-6.2,11.5-13.8S41.8,9.8,35.4,9.8C29,9.8,23.9,16,23.9,23.7S29,37.5,35.4,37.5z"/>
		<path d="M92.4,38.7c-2-2.9-4.9-4.6-8-4.8c-6.4-0.4-11.9,5.4-12.4,13c-0.2,3.6,0.7,7,2.5,9.8c2,2.9,4.9,4.6,8,4.8
			c0.2,0,0.4,0,0.7,0c6.1,0,11.3-5.7,11.8-13C95.2,44.8,94.3,41.4,92.4,38.7z"/>
		<path d="M64.6,37.5c6.4,0,11.5-6.2,11.5-13.8S71,9.8,64.6,9.8S53.1,16,53.1,23.7S58.3,37.5,64.6,37.5z"/>
	</g>
</g>
</svg>
